{
  "accessors": [
    {
      "bufferView": 2,
      "componentType": 5126,
      "count": 4704,
      "max": [
        2.3496799468994141,
        2.8641700744628906,
        2.8279600143432617
      ],
      "min": [
        -1.8821899890899658,
        -2.4637699127197266,
        -2.3194899559020996
      ],
      "type": "VEC3"
    },
    {
      "bufferView": 2,
      "byteOffset": 56448,
      "componentType": 5126,
      "count": 4704,
      "max": [
        1,
        0.99997836351394653,
        1
      ],
      "min": [
        -1,
        -1,
        -1
      ],
      "type": "VEC3"
    },
    {
      "bufferView": 1,
      "componentType": 5126,
      "count": 4704,
      "max": [
        0.99905997514724731,
        0.9878699779510498
      ],
      "min": [
        0.0009399999980814755,
        0.0009399999980814755
      ],
      "type": "VEC2"
    },
    {
      "bufferView": 0,
      "componentType": 5125,
      "count": 17505,
      "max": [
        4703
      ],
      "min": [
        0
      ],
      "type": "SCALAR"
    },
    {
      "bufferView": 2,
      "byteOffset": 112896,
      "componentType": 5126,
      "count": 124,
      "max": [
        5.6463398933410645,
        5.6787199974060059,
        -0.15121999382972717
      ],
      "min": [
        -5.3181900978088379,
        -6.2736201286315918,
        -16.055170059204102
      ],
      "type": "VEC3"
    },
    {
      "bufferView": 2,
      "byteOffset": 114384,
      "componentType": 5126,
      "count": 124,
      "max": [
        0.99898421764373779,
        0.99869203567504883,
        0.64444321393966675
      ],
      "min": [
        -0.99968945980072021,
        -0.99674403667449951,
        -0.077362626791000366
      ],
      "type": "VEC3"
    },
    {
      "bufferView": 2,
      "byteOffset": 115872,
      "componentType": 5126,
      "count": 124,
      "max": [
        1,
        1,
        1
      ],
      "min": [
        0.99607843160629272,
        0.99607843160629272,
        0.99607843160629272
      ],
      "type": "VEC3"
    },
    {
      "bufferView": 1,
      "byteOffset": 37632,
      "componentType": 5126,
      "count": 124,
      "max": [
        0.99817997217178345,
        0.17934000492095947
      ],
      "min": [
        0.69880002737045288,
        0.0059899999760091305
      ],
      "type": "VEC2"
    },
    {
      "bufferView": 0,
      "byteOffset": 70020,
      "componentType": 5125,
      "count": 540,
      "max": [
        123
      ],
      "min": [
        0
      ],
      "type": "SCALAR"
    },
    {
      "bufferView": 2,
      "byteOffset": 117360,
      "componentType": 5126,
      "count": 407,
      "max": [
        16.640609741210938,
        17.162960052490234,
        16.640609741210938
      ],
      "min": [
        -16.640609741210938,
        -17.129100799560547,
        -16.640609741210938
      ],
      "type": "VEC3"
    },
    {
      "bufferView": 2,
      "byteOffset": 122244,
      "componentType": 5126,
      "count": 407,
      "max": [
        0.99999696016311646,
        1,
        0.99999696016311646
      ],
      "min": [
        -0.99999696016311646,
        -1,
        -0.99999696016311646
      ],
      "type": "VEC3"
    },
    {
      "bufferView": 2,
      "byteOffset": 127128,
      "componentType": 5126,
      "count": 407,
      "max": [
        1,
        1,
        1
      ],
      "min": [
        1,
        1,
        1
      ],
      "type": "VEC3"
    },
    {
      "bufferView": 1,
      "byteOffset": 38624,
      "componentType": 5126,
      "count": 407,
      "max": [
        1.0000100135803223,
        0.99928998947143555
      ],
      "min": [
        0,
        0.0006399999838322401
      ],
      "type": "VEC2"
    },
    {
      "bufferView": 0,
      "byteOffset": 72180,
      "componentType": 5125,
      "count": 2304,
      "max": [
        406
      ],
      "min": [
        0
      ],
      "type": "SCALAR"
    },
    {
      "bufferView": 2,
      "byteOffset": 132012,
      "componentType": 5126,
      "count": 530,
      "max": [
        1.6719800233840942,
        1.2791899442672729,
        2.2369699478149414
      ],
      "min": [
        -1.2447400093078613,
        -1.435420036315918,
        -1.0923299789428711
      ],
      "type": "VEC3"
    },
    {
      "bufferView": 2,
      "byteOffset": 138372,
      "componentType": 5126,
      "count": 530,
      "max": [
        1,
        0.99847227334976196,
        0.9996073842048645
      ],
      "min": [
        -1,
        -0.99916380643844604,
        -0.98838776350021362
      ],
      "type": "VEC3"
    },
    {
      "bufferView": 1,
      "byteOffset": 41880,
      "componentType": 5126,
      "count": 530,
      "max": [
        0.96801000833511353,
        0.99970000982284546
      ],
      "min": [
        0.00030000001424923539,
        0.00030000001424923539
      ],
      "type": "VEC2"
    },
    {
      "bufferView": 0,
      "byteOffset": 81396,
      "componentType": 5125,
      "count": 1929,
      "max": [
        529
      ],
      "min": [
        0
      ],
      "type": "SCALAR"
    },
    {
      "bufferView": 2,
      "byteOffset": 144732,
      "componentType": 5126,
      "count": 2098,
      "max": [
        3.1530599594116211,
        3.22871994972229,
        1.7747299671173096
      ],
      "min": [
        -2.2254600524902344,
        -2.9572899341583252,
        -2.397089958190918
      ],
      "type": "VEC3"
    },
    {
      "bufferView": 2,
      "byteOffset": 169908,
      "componentType": 5126,
      "count": 2098,
      "max": [
        0.99822819232940674,
        0.99928039312362671,
        0.99994808435440063
      ],
      "min": [
        -0.99774414300918579,
        -0.99153631925582886,
        -0.99995535612106323
      ],
      "type": "VEC3"
    },
    {
      "bufferView": 2,
      "byteOffset": 195084,
      "componentType": 5126,
      "count": 2098,
      "max": [
        1,
        1,
        1
      ],
      "min": [
        1,
        1,
        1
      ],
      "type": "VEC3"
    },
    {
      "bufferView": 1,
      "byteOffset": 46120,
      "componentType": 5126,
      "count": 2098,
      "max": [
        0.99983000755310059,
        0.99531000852584839
      ],
      "min": [
        0.00016999999934341758,
        0.00016999999934341758
      ],
      "type": "VEC2"
    },
    {
      "bufferView": 0,
      "byteOffset": 89112,
      "componentType": 5125,
      "count": 5886,
      "max": [
        2097
      ],
      "min": [
        0
      ],
      "type": "SCALAR"
    },
    {
      "bufferView": 2,
      "byteOffset": 220260,
      "componentType": 5126,
      "count": 3258,
      "max": [
        3.1530599594116211,
        3.22871994972229,
        1.7747299671173096
      ],
      "min": [
        -2.2254600524902344,
        -2.9572899341583252,
        -2.397089958190918
      ],
      "type": "VEC3"
    },
    {
      "bufferView": 2,
      "byteOffset": 259356,
      "componentType": 5126,
      "count": 3258,
      "max": [
        0.9989129900932312,
        0.994911789894104,
        1
      ],
      "min": [
        -0.99774295091629028,
        -0.98589032888412476,
        -0.99934834241867065
      ],
      "type": "VEC3"
    },
    {
      "bufferView": 2,
      "byteOffset": 298452,
      "componentType": 5126,
      "count": 3258,
      "max": [
        1,
        1,
        1
      ],
      "min": [
        1,
        1,
        1
      ],
      "type": "VEC3"
    },
    {
      "bufferView": 1,
      "byteOffset": 62904,
      "componentType": 5126,
      "count": 3258,
      "max": [
        0.99983000755310059,
        0.99531000852584839
      ],
      "min": [
        0.00016999999934341758,
        0.00016999999934341758
      ],
      "type": "VEC2"
    },
    {
      "bufferView": 0,
      "byteOffset": 112656,
      "componentType": 5125,
      "count": 4674,
      "max": [
        3257
      ],
      "min": [
        0
      ],
      "type": "SCALAR"
    },
    {
      "bufferView": 2,
      "byteOffset": 337548,
      "componentType": 5126,
      "count": 306,
      "max": [
        1.6719800233840942,
        1.2791899442672729,
        1.8435800075531006
      ],
      "min": [
        -1.2447400093078613,
        -1.435420036315918,
        -1.0849399566650391
      ],
      "type": "VEC3"
    },
    {
      "bufferView": 2,
      "byteOffset": 341220,
      "componentType": 5126,
      "count": 306,
      "max": [
        1,
        1,
        0.99949902296066284
      ],
      "min": [
        -0.9970734715461731,
        -0.99273586273193359,
        -0.99979442358016968
      ],
      "type": "VEC3"
    },
    {
      "bufferView": 1,
      "byteOffset": 88968,
      "componentType": 5126,
      "count": 306,
      "max": [
        0.96801000833511353,
        0.83366000652313232
      ],
      "min": [
        0.00030000001424923539,
        0.027359999716281891
      ],
      "type": "VEC2"
    },
    {
      "bufferView": 0,
      "byteOffset": 131352,
      "componentType": 5125,
      "count": 450,
      "max": [
        305
      ],
      "min": [
        0
      ],
      "type": "SCALAR"
    },
    {
      "bufferView": 2,
      "byteOffset": 344892,
      "componentType": 5126,
      "count": 7286,
      "max": [
        2.3496799468994141,
        2.6384398937225342,
        1.8355799913406372
      ],
      "min": [
        -1.4329299926757812,
        -1.5379199981689453,
        -2.3194899559020996
      ],
      "type": "VEC3"
    },
    {
      "bufferView": 2,
      "byteOffset": 432324,
      "componentType": 5126,
      "count": 7286,
      "max": [
        1,
        1,
        1
      ],
      "min": [
        -1,
        -1,
        -1
      ],
      "type": "VEC3"
    },
    {
      "bufferView": 1,
      "byteOffset": 91416,
      "componentType": 5126,
      "count": 7286,
      "max": [
        0.98910999298095703,
        0.98584997653961182
      ],
      "min": [
        0.0009399999980814755,
        0.0009399999980814755
      ],
      "type": "VEC2"
    },
    {
      "bufferView": 0,
      "byteOffset": 133152,
      "componentType": 5125,
      "count": 10866,
      "max": [
        7285
      ],
      "min": [
        0
      ],
      "type": "SCALAR"
    },
    {
      "bufferView": 2,
      "byteOffset": 519756,
      "componentType": 5126,
      "count": 19,
      "max": [
        2.578200101852417,
        2.7674500942230225,
        -2.3840100765228271
      ],
      "min": [
        0.63787001371383667,
        1.6210900545120239,
        -2.384350061416626
      ],
      "type": "VEC3"
    },
    {
      "bufferView": 2,
      "byteOffset": 519984,
      "componentType": 5126,
      "count": 19,
      "max": [
        0.0050100698135793209,
        0,
        1
      ],
      "min": [
        0,
        -0.0026600370183587074,
        0.99998396635055542
      ],
      "type": "VEC3"
    },
    {
      "bufferView": 2,
      "byteOffset": 520212,
      "componentType": 5126,
      "count": 19,
      "max": [
        1,
        1,
        1
      ],
      "min": [
        1,
        1,
        1
      ],
      "type": "VEC3"
    },
    {
      "bufferView": 1,
      "byteOffset": 149704,
      "componentType": 5126,
      "count": 19,
      "max": [
        0.40685999393463135,
        0.77947998046875
      ],
      "min": [
        0,
        0
      ],
      "type": "VEC2"
    },
    {
      "bufferView": 0,
      "byteOffset": 176616,
      "componentType": 5125,
      "count": 51,
      "max": [
        18
      ],
      "min": [
        0
      ],
      "type": "SCALAR"
    },
    {
      "bufferView": 2,
      "byteOffset": 520440,
      "componentType": 5126,
      "count": 224,
      "max": [
        0.17287999391555786,
        0.18331000208854675,
        0.23863999545574188
      ],
      "min": [
        -0.17597000300884247,
        -0.18258999288082123,
        -0.021449999883770943
      ],
      "type": "VEC3"
    },
    {
      "bufferView": 2,
      "byteOffset": 523128,
      "componentType": 5126,
      "count": 224,
      "max": [
        0.94404089450836182,
        0.89932882785797119,
        0.47109931707382202
      ],
      "min": [
        -0.98786890506744385,
        -0.80181914567947388,
        -0.99161398410797119
      ],
      "type": "VEC3"
    },
    {
      "bufferView": 2,
      "byteOffset": 525816,
      "componentType": 5126,
      "count": 224,
      "max": [
        1,
        1,
        1
      ],
      "min": [
        1,
        1,
        1
      ],
      "type": "VEC3"
    },
    {
      "bufferView": 1,
      "byteOffset": 149856,
      "componentType": 5126,
      "count": 224,
      "max": [
        0.9116700291633606,
        0.98662000894546509
      ],
      "min": [
        0.37674999237060547,
        0.79947000741958618
      ],
      "type": "VEC2"
    },
    {
      "bufferView": 0,
      "byteOffset": 176820,
      "componentType": 5125,
      "count": 336,
      "max": [
        223
      ],
      "min": [
        0
      ],
      "type": "SCALAR"
    },
    {
      "bufferView": 2,
      "byteOffset": 528504,
      "componentType": 5126,
      "count": 201,
      "max": [
        7.6385197639465332,
        11.744890213012695,
        14.221949577331543
      ],
      "min": [
        -9.6973304748535156,
        -7.4974498748779297,
        -4.5932698249816895
      ],
      "type": "VEC3"
    },
    {
      "bufferView": 2,
      "byteOffset": 530916,
      "componentType": 5126,
      "count": 201,
      "max": [
        0.71091240644454956,
        0.92088299989700317,
        0.36148867011070251
      ],
      "min": [
        -0.66194093227386475,
        -0.68537777662277222,
        -0.84700822830200195
      ],
      "type": "VEC3"
    },
    {
      "bufferView": 0,
      "byteOffset": 178164,
      "componentType": 5125,
      "count": 336,
      "max": [
        200
      ],
      "min": [
        0
      ],
      "type": "SCALAR"
    }
  ],
  "asset": {
    "extras": {
      "author": "luyssport (https://sketchfab.com/luyssport)",
      "license": "CC-BY-NC-SA-4.0 (http://creativecommons.org/licenses/by-nc-sa/4.0/)",
      "source": "https://sketchfab.com/3d-models/gr-5df64141235040749103749123e43010",
      "title": "gr"
    },
    "generator": "Sketchfab-8.6.0",
    "version": "2.0"
  },
  "bufferViews": [
    {
      "buffer": 0,
      "byteLength": 179508,
      "byteOffset": 0,
      "name": "floatBufferViews",
      "target": 34963
    },
    {
      "buffer": 0,
      "byteLength": 151648,
      "byteOffset": 179508,
      "byteStride": 8,
      "name": "floatBufferViews",
      "target": 34962
    },
    {
      "buffer": 0,
      "byteLength": 533328,
      "byteOffset": 331156,
      "byteStride": 12,
      "name": "floatBufferViews",
      "target": 34962
    }
  ],
  "buffers": [
    {
      "byteLength": 864484,
      "uri": "scene.bin"
    }
  ],
  "extensionsUsed": [
    "KHR_materials_unlit"
  ],
  "images": [
    {
      "uri": "textures/ground_baseColor.jpeg"
    },
    {
      "uri": "textures/parts_baseColor.jpeg"
    },
    {
      "uri": "textures/cabin_baseColor.jpeg"
    },
    {
      "uri": "textures/material_baseColor.jpeg"
    }
  ],
  "materials": [
    {
      "alphaMode": "BLEND",
      "doubleSided": true,
      "extensions": {
        "KHR_materials_unlit": {}
      },
      "name": "water002",
      "pbrMetallicRoughness": {
        "baseColorFactor": [
          0.80000001192092896,
          0.80000001192092896,
          0.80000001192092896,
          0.08708079268292683
        ],
        "metallicFactor": 0,
        "roughnessFactor": 1
      }
    },
    {
      "doubleSided": true,
      "extensions": {
        "KHR_materials_unlit": {}
      },
      "name": "ground",
      "pbrMetallicRoughness": {
        "baseColorFactor": [
          1,
          1,
          1,
          1
        ],
        "baseColorTexture": {
          "index": 0,
          "texCoord": 0
        },
        "metallicFactor": 0,
        "roughnessFactor": 1
      }
    },
    {
      "alphaMode": "BLEND",
      "doubleSided": true,
      "extensions": {
        "KHR_materials_unlit": {}
      },
      "name": "water",
      "pbrMetallicRoughness": {
        "baseColorFactor": [
          0.80000001192092896,
          0.80000001192092896,
          0.80000001192092896,
          0.24561737804878048
        ],
        "metallicFactor": 0,
        "roughnessFactor": 1
      }
    },
    {
      "doubleSided": true,
      "extensions": {
        "KHR_materials_unlit": {}
      },
      "name": "parts",
      "pbrMetallicRoughness": {
        "baseColorFactor": [
          1,
          1,
          1,
          1
        ],
        "baseColorTexture": {
          "index": 1,
          "texCoord": 0
        },
        "metallicFactor": 0,
        "roughnessFactor": 1
      }
    },
    {
      "doubleSided": true,
      "extensions": {
        "KHR_materials_unlit": {}
      },
      "name": "cabin",
      "pbrMetallicRoughness": {
        "baseColorFactor": [
          1,
          1,
          1,
          1
        ],
        "baseColorTexture": {
          "index": 2,
          "texCoord": 0
        },
        "metallicFactor": 0,
        "roughnessFactor": 1
      }
    },
    {
      "doubleSided": false,
      "extensions": {
        "KHR_materials_unlit": {}
      },
      "name": "material",
      "pbrMetallicRoughness": {
        "baseColorFactor": [
          1,
          1,
          1,
          1
        ],
        "baseColorTexture": {
          "index": 3,
          "texCoord": 0
        },
        "metallicFactor": 0,
        "roughnessFactor": 1
      }
    }
  ],
  "meshes": [
    {
      "name": "parts_0",
      "primitives": [
        {
          "attributes": {
            "NORMAL": 1,
            "POSITION": 0,
            "TEXCOORD_0": 2
          },
          "indices": 3,
          "material": 3,
          "mode": 4
        }
      ]
    },
    {
      "name": "ground002_0",
      "primitives": [
        {
          "attributes": {
            "COLOR_0": 6,
            "NORMAL": 5,
            "POSITION": 4,
            "TEXCOORD_0": 7
          },
          "indices": 8,
          "material": 1,
          "mode": 4
        }
      ]
    },
    {
      "name": "sky_0",
      "primitives": [
        {
          "attributes": {
            "COLOR_0": 11,
            "NORMAL": 10,
            "POSITION": 9,
            "TEXCOORD_0": 12
          },
          "indices": 13,
          "material": 5,
          "mode": 4
        }
      ]
    },
    {
      "name": "cabin_0",
      "primitives": [
        {
          "attributes": {
            "NORMAL": 15,
            "POSITION": 14,
            "TEXCOORD_0": 16
          },
          "indices": 17,
          "material": 4,
          "mode": 4
        }
      ]
    },
    {
      "name": "ground_0",
      "primitives": [
        {
          "attributes": {
            "COLOR_0": 20,
            "NORMAL": 19,
            "POSITION": 18,
            "TEXCOORD_0": 21
          },
          "indices": 22,
          "material": 1,
          "mode": 4
        }
      ]
    },
    {
      "name": "Cube.003_0",
      "primitives": [
        {
          "attributes": {
            "COLOR_0": 25,
            "NORMAL": 24,
            "POSITION": 23,
            "TEXCOORD_0": 26
          },
          "indices": 27,
          "material": 1,
          "mode": 4
        }
      ]
    },
    {
      "name": "Cube.006_0",
      "primitives": [
        {
          "attributes": {
            "NORMAL": 29,
            "POSITION": 28,
            "TEXCOORD_0": 30
          },
          "indices": 31,
          "material": 4,
          "mode": 4
        }
      ]
    },
    {
      "name": "Cube.007_0",
      "primitives": [
        {
          "attributes": {
            "NORMAL": 33,
            "POSITION": 32,
            "TEXCOORD_0": 34
          },
          "indices": 35,
          "material": 3,
          "mode": 4
        }
      ]
    },
    {
      "name": "water_0",
      "primitives": [
        {
          "attributes": {
            "COLOR_0": 38,
            "NORMAL": 37,
            "POSITION": 36,
            "TEXCOORD_0": 39
          },
          "indices": 40,
          "material": 2,
          "mode": 4
        }
      ]
    },
    {
      "name": "Cube.010_0",
      "primitives": [
        {
          "attributes": {
            "COLOR_0": 43,
            "NORMAL": 42,
            "POSITION": 41,
            "TEXCOORD_0": 44
          },
          "indices": 45,
          "material": 1,
          "mode": 4
        }
      ]
    },
    {
      "name": "water002_0",
      "primitives": [
        {
          "attributes": {
            "NORMAL": 47,
            "POSITION": 46
          },
          "indices": 48,
          "material": 0,
          "mode": 4
        }
      ]
    }
  ],
  "nodes": [
    {
      "children": [
        1
      ],
      "name": "RootNode (gltf orientation matrix)",
      "rotation": [
        -0.70710678118654746,
        -0,
        -0,
        0.70710678118654757
      ]
    },
    {
      "children": [
        2
      ],
      "name": "RootNode (model correction matrix)"
    },
    {
      "children": [
        3,
        5,
        7,
        9,
        11,
        13,
        15,
        17,
        19,
        21,
        23
      ],
      "name": "Root"
    },
    {
      "children": [
        4
      ],
      "name": "parts"
    },
    {
      "mesh": 0,
      "name": "parts_0"
    },
    {
      "children": [
        6
      ],
      "name": "ground002"
    },
    {
      "mesh": 1,
      "name": "ground002_0"
    },
    {
      "children": [
        8
      ],
      "name": "sky"
    },
    {
      "mesh": 2,
      "name": "sky_0"
    },
    {
      "children": [
        10
      ],
      "name": "cabin"
    },
    {
      "mesh": 3,
      "name": "cabin_0"
    },
    {
      "children": [
        12
      ],
      "name": "ground"
    },
    {
      "mesh": 4,
      "name": "ground_0"
    },
    {
      "children": [
        14
      ],
      "matrix": [
        1,
        0,
        0,
        0,
        0,
        1,
        0,
        0,
        0,
        0,
        -1,
        0,
        0,
        0,
        -4.7683600000000004,
        1
      ],
      "name": "Cube.003"
    },
    {
      "mesh": 5,
      "name": "Cube.003_0"
    },
    {
      "children": [
        16
      ],
      "matrix": [
        1,
        0,
        0,
        0,
        0,
        1,
        0,
        0,
        0,
        0,
        -1,
        0,
        0,
        0,
        -4.7683600000000004,
        1
      ],
      "name": "Cube.006"
    },
    {
      "mesh": 6,
      "name": "Cube.006_0"
    },
    {
      "children": [
        18
      ],
      "matrix": [
        1,
        0,
        0,
        0,
        0,
        1,
        0,
        0,
        0,
        0,
        -1,
        0,
        0,
        0,
        -4.7683600000000004,
        1
      ],
      "name": "Cube.007"
    },
    {
      "mesh": 7,
      "name": "Cube.007_0"
    },
    {
      "children": [
        20
      ],
      "name": "water"
    },
    {
      "mesh": 8,
      "name": "water_0"
    },
    {
      "children": [
        22
      ],
      "matrix": [
        0.87548000000000004,
        -0.42491000000000007,
        -0.23018,
        0,
        0.47373999999999999,
        0.8486800000000001,
        0.23516999999999999,
        0,
        0.095420000000000033,
        -0.31494000000000005,
        0.94430000000000003,
        0,
        2.4375200000000001,
        -1.3815199999999999,
        -2.2320699999999998,
        1
      ],
      "name": "Cube.010"
    },
    {
      "mesh": 9,
      "name": "Cube.010_0"
    },
    {
      "children": [
        24
      ],
      "matrix": [
        1,
        0,
        0,
        0,
        0,
        1,
        0,
        0,
        0,
        0,
        1,
        0,
        0.14810000000000001,
        0.87901000000000007,
        -4.5446,
        1
      ],
      "name": "water002"
    },
    {
      "mesh": 10,
      "name": "water002_0"
    }
  ],
  "samplers": [
    {
      "magFilter": 9729,
      "minFilter": 9987,
      "wrapS": 10497,
      "wrapT": 10497
    }
  ],
  "scene": 0,
  "scenes": [
    {
      "name": "OSG_Scene",
      "nodes": [
        0
      ]
    }
  ],
  "textures": [
    {
      "sampler": 0,
      "source": 0
    },
    {
      "sampler": 0,
      "source": 1
    },
    {
      "sampler": 0,
      "source": 2
    },
    {
      "sampler": 0,
      "source": 3
    }
  ]
}

